<?xml version="1.0" encoding="UTF-8"?>
<!-- Generator: visioncortex VTracer 0.6.1 -->
<svg version="1.1" xmlns="http://www.w3.org/2000/svg" width="780" height="910">
<path d="M0 0 C3.67689348 1.50719507 5.6763138 3.63470991 8.25 6.625 C11.12013139 9.89977286 14.01572983 13.07622147 17.125 16.125 C20.96251829 19.91719327 24.51321233 23.88502588 28 28 C28.84304688 28.98871094 29.68609375 29.97742188 30.5546875 30.99609375 C31.45375321 32.05936496 32.35219243 33.12316623 33.25 34.1875 C34.08015625 35.17105469 34.9103125 36.15460938 35.765625 37.16796875 C37.76705753 39.70474949 39.35730402 42.22740732 41 45 C42.43466353 46.91380791 43.89585666 48.80785772 45.375 50.6875 C62.37651262 72.59517241 77.63884865 95.75065476 91.64111328 119.67919922 C92.96994206 121.94866496 94.3103911 124.21093272 95.65234375 126.47265625 C127.00170343 179.6147003 152.32067608 236.61114492 171.99755859 295.05908203 C173.12610761 298.36996888 174.28972808 301.6674253 175.45703125 304.96484375 C180.57754962 319.48470942 185.20910895 334.02816573 189.17333984 348.90527344 C190.01540899 352.05768588 190.87490374 355.20492423 191.73828125 358.3515625 C193.52715633 364.89191998 195.27302284 371.44304839 197 378 C197.29406738 379.11213867 197.58813477 380.22427734 197.89111328 381.37011719 C202.72670735 399.77759432 206.59038684 418.2792489 210 437 C210.22961426 438.23427734 210.45922852 439.46855469 210.69580078 440.74023438 C215.10790608 464.51955812 217.7814299 488.24392686 219.1875 512.375 C219.23047211 513.10535461 219.27344421 513.83570923 219.31771851 514.5881958 C220.17078933 529.40028394 220.11237976 544.06589272 219.1875 558.875 C219.14298706 559.59199066 219.09847412 560.30898132 219.0526123 561.04769897 C214.01507552 640.72826492 183.44944427 721.35938908 128.484375 780.3046875 C126.55700535 782.39570174 124.69569163 784.51181064 122.84375 786.66796875 C118.36249297 791.80560806 113.56722191 796.61680246 108.75 801.4375 C107.87214844 802.32759766 106.99429688 803.21769531 106.08984375 804.13476562 C100.78394639 809.45231576 95.30279566 814.35225274 89.43798828 819.0456543 C87.51127322 820.590152 85.63335468 822.15692486 83.78515625 823.79296875 C41.63895641 860.85985613 -13.38589524 886.08668065 -68 898 C-68.92458008 898.20963379 -69.84916016 898.41926758 -70.80175781 898.63525391 C-123.06352117 910.40148837 -179.82507241 909.9546436 -232 898 C-232.99837891 897.77441406 -233.99675781 897.54882812 -235.02539062 897.31640625 C-258.90990349 891.85091333 -281.58494521 883.84804654 -304 874 C-304.76860352 873.66532715 -305.53720703 873.3306543 -306.32910156 872.98583984 C-332.57209636 861.4635063 -357.21092438 845.78900755 -379.546875 827.8828125 C-381.94422954 825.96420587 -381.94422954 825.96420587 -384.52734375 824.5078125 C-387.26954496 822.83563293 -389.45486965 820.92861803 -391.8125 818.75 C-394.70734377 816.08655484 -397.62259094 813.4653661 -400.609375 810.90625 C-405.5866994 806.56125462 -410.2663496 801.91971499 -414.93579102 797.24951172 C-416.42641615 795.76106763 -417.92487017 794.28082723 -419.42382812 792.80078125 C-425.73358562 786.52770801 -431.46484654 779.97792639 -437 773 C-437.97638682 771.82602015 -438.95627126 770.65492986 -439.94140625 769.48828125 C-449.23258665 758.30893252 -457.13974993 746.21016137 -465 734 C-465.44972168 733.30438965 -465.89944336 732.6087793 -466.36279297 731.89208984 C-489.23002461 696.19619743 -505.29054259 655.39984604 -514 614 C-514.28931396 612.65615234 -514.28931396 612.65615234 -514.58447266 611.28515625 C-522.46338337 574.30167303 -523.74149707 536.66544529 -520.28222656 499.07666016 C-520.00514016 496.05603481 -519.74627444 493.03435693 -519.4921875 490.01171875 C-518.37445335 476.92094917 -517.01240429 463.90769843 -514.5625 450.98828125 C-513.99873345 447.99327146 -513.46752524 444.99337786 -512.94335938 441.99121094 C-512.42994219 439.05420136 -511.9085886 436.11862335 -511.38671875 433.18310547 C-511.13473459 431.76060396 -510.88464011 430.337766 -510.63671875 428.91455078 C-509.16263688 420.47300224 -507.32321667 412.23372072 -505.03125 403.96875 C-503.66681084 398.89057418 -502.6459662 393.73809399 -501.65844727 388.57495117 C-500.09426849 380.72075827 -497.84612335 373.0523114 -495.66470337 365.35250854 C-495.03393955 363.12011835 -494.41038492 360.88587177 -493.78979492 358.65063477 C-477.93762853 301.6411059 -456.8970353 246.65164074 -432 193 C-431.51225098 191.9471582 -431.02450195 190.89431641 -430.52197266 189.80957031 C-424.72194811 177.33436336 -418.52946329 165.10819499 -412 153 C-411.52272461 152.11135254 -411.04544922 151.22270508 -410.55371094 150.30712891 C-395.9984765 123.24008219 -380.27306511 96.96517584 -362.37988281 71.95654297 C-361.20114429 70.28520353 -360.0664954 68.58291522 -358.94140625 66.875 C-356.65598139 63.4905479 -354.17053526 60.31557959 -351.625 57.125 C-348.6449112 53.3636752 -345.6693999 49.60642136 -342.8125 45.75 C-336.86210346 37.77105918 -330.52259951 30.25045592 -323.7421875 22.96875 C-321.16408082 20.19705917 -318.67782162 17.35087324 -316.1875 14.5 C-313.00937104 10.9409504 -310.03034044 8.49497265 -306 6 C-304.16699091 3.89424357 -304.16699091 3.89424357 -303 2 C-302.01 2.495 -302.01 2.495 -301 3 C-301.53367187 3.65742188 -302.06734375 4.31484375 -302.6171875 4.9921875 C-320.16446858 27.39684743 -331.80326593 55.11086051 -337 83 C-337.29003906 84.32451172 -337.29003906 84.32451172 -337.5859375 85.67578125 C-340.12093592 97.78131719 -340.35527944 110.66672801 -340 123 C-339.98324219 124.17691406 -339.96648437 125.35382813 -339.94921875 126.56640625 C-339.26068003 151.80867206 -331.85201243 176.35801752 -321 199 C-320.63922363 199.7542627 -320.27844727 200.50852539 -319.90673828 201.28564453 C-312.5489194 216.44069461 -303.43579316 229.56635223 -291.94921875 241.8984375 C-290.20472294 243.77927667 -288.56532432 245.70618031 -286.9375 247.6875 C-283.64470672 251.54863843 -279.89952442 254.76676123 -276 258 C-275.28328125 258.60457031 -274.5665625 259.20914062 -273.828125 259.83203125 C-251.75766111 278.01424227 -226.94345957 291.33999449 -199.3125 298.8125 C-198.63823975 298.99538574 -197.96397949 299.17827148 -197.26928711 299.36669922 C-182.62701797 303.05842935 -168.32481132 304.49534529 -153.25927734 304.39111328 C-150.50177585 304.37501037 -147.74573925 304.39107857 -144.98828125 304.41015625 C-95.10268784 304.46822899 -49.6126896 282.41471763 -14.5 247.75 C-9.86168978 243.10725605 -5.83894884 238.33187338 -2 233 C-1.34 233 -0.68 233 0 233 C0.25652344 232.27425781 0.51304687 231.54851562 0.77734375 230.80078125 C2.06384876 227.85373942 3.58866649 225.71958945 5.5625 223.1875 C31.90299787 187.51112946 40.45676918 141.47395589 37 98 C36.93796387 97.2044873 36.87592773 96.40897461 36.81201172 95.58935547 C35.96092206 85.42199026 34.01801864 75.75886266 31 66 C30.76152344 65.21109375 30.52304687 64.4221875 30.27734375 63.609375 C23.95630603 42.89924136 15.17452136 23.65727728 2.203125 6.234375 C0 3 0 3 0 0 Z " fill="#ffffff" transform="translate(540,0)"/>
<path d="M0 0 C1.69498783 1.64362456 3.35399008 3.30791856 5 5 C5.49628906 5.50015625 5.99257813 6.0003125 6.50390625 6.515625 C21.46058448 22.5174687 30.6162823 43.03414003 36 64 C36.23460937 64.88429688 36.46921875 65.76859375 36.7109375 66.6796875 C39.01111697 76.04708506 39.19561181 85.77467532 39.1875 95.375 C39.18669434 96.37942139 39.18588867 97.38384277 39.18505859 98.41870117 C39.12410636 105.81722621 38.50198021 112.74395478 37 120 C36.87882813 120.78117188 36.75765625 121.56234375 36.6328125 122.3671875 C31.20011392 155.2959932 9.97158721 185.12543976 -16.6875 204.5625 C-28.47834722 212.46031867 -40.55740255 218.49003765 -54 223 C-54.90234375 223.31710937 -55.8046875 223.63421875 -56.734375 223.9609375 C-68.88286048 227.97073173 -81.63390033 228.38223266 -94.3125 228.3125 C-95.0384436 228.31001251 -95.76438721 228.30752502 -96.5123291 228.30496216 C-107.25808495 228.24806799 -117.59917276 227.96566798 -128 225 C-128.80759766 224.77425293 -129.61519531 224.54850586 -130.44726562 224.31591797 C-147.61432272 219.37417603 -162.96153878 212.13018187 -177 201 C-177.93070313 200.27167969 -178.86140625 199.54335938 -179.8203125 198.79296875 C-186.44260204 193.55739796 -186.44260204 193.55739796 -189 191 C-188.67234348 187.63224841 -187.32223883 185.94781802 -184.97770786 183.60577106 C-184.32903863 182.95051199 -183.68036941 182.29525292 -183.01204354 181.62013751 C-182.29260423 180.90875462 -181.57316493 180.19737172 -180.83192444 179.46443176 C-180.07294041 178.70217889 -179.31395637 177.93992602 -178.53197283 177.15457457 C-175.97640876 174.59170366 -173.41022841 172.03973223 -170.84399414 169.48754883 C-169.01396515 167.65672934 -167.18458899 165.8252571 -165.3558197 163.99317932 C-160.89702723 159.52874934 -156.43029566 155.07234428 -151.96089227 150.61853985 C-146.75966465 145.43483334 -141.56648708 140.24309352 -136.37368541 135.05094858 C-127.11073461 125.78968641 -117.84073643 116.53551076 -108.56665039 107.28540039 C-99.56087549 98.30289073 -90.55966546 89.31584105 -81.5637207 80.32348633 C-81.00953306 79.76952145 -80.45534541 79.21555657 -79.8843642 78.64480487 C-78.76799731 77.52888058 -77.65163071 76.41295601 -76.5352644 75.29703115 C-75.98461051 74.74659682 -75.43395662 74.1961625 -74.86661625 73.62904835 C-74.04276573 72.80552181 -74.04276573 72.80552181 -73.20227176 71.96535837 C-64.63773091 63.40451579 -56.06936156 54.84750572 -47.50046288 46.29102537 C-44.39132601 43.18632768 -41.2826906 40.08112892 -38.17439968 36.97558431 C-32.78517542 31.59120051 -27.39333515 26.20945556 -21.99859047 20.83060265 C-20.20378824 19.04033508 -18.40983717 17.24921376 -16.61677933 15.4571991 C-14.17851724 13.02067428 -11.73721791 10.58723554 -9.2950592 8.15461731 C-8.57785062 7.43654225 -7.86064204 6.71846718 -7.12169987 5.97863227 C-6.47042289 5.33119644 -5.81914592 4.68376061 -5.14813328 4.01670551 C-4.58441094 3.45422967 -4.0206886 2.89175383 -3.43988377 2.31223327 C-2 1 -2 1 0 0 Z " fill="#2f213b" transform="translate(642,517)"/>
<path d="M0 0 C3.33813646 0.58479835 4.97621031 1.60077397 7.36020088 3.98267746 C8.33171426 4.94245597 8.33171426 4.94245597 9.32285416 5.92162395 C10.37723248 6.98604051 10.37723248 6.98604051 11.45291138 8.07196045 C12.20629158 8.82066068 12.95967178 9.56936091 13.73588169 10.34074903 C16.2687889 12.8616513 18.79079237 15.3931889 21.31298828 17.92480469 C23.1224955 19.73024863 24.9326407 21.53505334 26.74337769 23.33926392 C31.15565377 27.7392558 35.56082153 32.14625595 39.96261133 36.55673549 C43.54013743 40.14103187 47.12057503 43.72239528 50.70312119 47.30167389 C51.46744178 48.06530493 51.46744178 48.06530493 52.24720319 48.84436287 C53.28230688 49.8785074 54.31741731 50.91264518 55.3525344 51.9467763 C65.0636195 61.64930228 74.76548026 71.36101013 84.46422575 81.07586876 C92.78752409 89.41256671 101.11865117 97.7413732 109.45556641 106.06445312 C119.13369596 115.72652914 128.80694118 125.39345223 138.4724406 135.06816411 C139.50312422 136.09980338 140.53381411 137.13143639 141.56451035 138.16306305 C142.07164526 138.67066079 142.57878017 139.17825853 143.10128281 139.70123802 C146.67634117 143.27888724 150.25487022 146.85304216 153.83475113 150.42586517 C158.65331472 155.23513756 163.46385788 160.05229355 168.26909256 164.87488937 C170.03622442 166.6459953 171.80592774 168.41453973 173.57834625 170.18035507 C175.99290853 172.58674845 178.39808498 175.0021448 180.80105591 177.42010498 C181.50843623 178.12079314 182.21581656 178.8214813 182.94463265 179.54340243 C186.17642218 182.81454549 188.76072978 185.43494884 190 190 C181.0888753 199.74006654 170.69739179 206.97085432 159 213 C157.88818359 213.61101562 157.88818359 213.61101562 156.75390625 214.234375 C145.23512792 220.36259204 132.76196191 223.63608215 120 226 C118.64926392 226.25910156 118.64926392 226.25910156 117.27124023 226.5234375 C111.51311522 227.36229563 105.70797667 227.22522966 99.89990234 227.24023438 C97.66594507 227.24982423 95.43295613 227.28083683 93.19921875 227.3125 C61.088302 227.54992596 31.1277408 214.87273361 7 194 C6.12214844 193.26652344 5.24429688 192.53304687 4.33984375 191.77734375 C-18.39447857 172.11263457 -35.49641967 140.52639962 -37.87548828 110.31298828 C-39.46513067 80.78304321 -35.82898049 53.95071586 -21 28 C-20.61972656 27.32743164 -20.23945313 26.65486328 -19.84765625 25.96191406 C-14.26711095 16.22340509 -7.91732753 7.94743143 0 0 Z " fill="#2f213b" transform="translate(135,518)"/>
</svg>
